<?xml version="1.0" standalone="no"?><!DOCTYPE svg PUBLIC "-//W3C//DTD SVG 1.1//EN" "http://www.w3.org/Graphics/SVG/1.1/DTD/svg11.dtd"><svg t="1690970518252" class="icon" viewBox="0 0 1024 1024" version="1.1" xmlns="http://www.w3.org/2000/svg" p-id="9153" xmlns:xlink="http://www.w3.org/1999/xlink" width="200" height="200"><path d="M779.480472 631.645984c-65.934688 0-119.648031-53.66627-119.648031-119.644961 0-65.980737 53.713342-119.648031 119.648031-119.648031 65.935712 0 119.647007 53.667294 119.647007 119.648031C899.126456 577.979714 845.415161 631.645984 779.480472 631.645984M779.480472 332.549955c-88.89154 0-162.493861 64.709791-176.777169 149.527548L61.684386 482.077503l0 59.84397 89.724511 0 0 134.586255 59.823504 0L211.2324 541.921473l89.724511 0 0 74.742285 59.823504 0 0-74.742285 241.921865 0c14.283308 84.817758 87.88563 149.527548 176.777169 149.527548 99.100042 0 179.447998-80.351026 179.447998-179.447998C958.92847 412.899958 878.579491 332.549955 779.480472 332.549955" p-id="9154"></path></svg>