<svg width="1024" height="1024" xmlns="http://www.w3.org/2000/svg">

 <g>
  <title>background</title>
  <rect fill="#ffffff" id="canvas_background" height="1026" width="1026" y="-1" x="-1"/>
 </g>
 <g>
  <title>Layer 1</title>
  <path fill="#8700ed" fill-rule="nonzero" stroke-width="16" id="path14279" d="m511.999996,84.171938c-105.403116,0 -206.985047,30.346748 -286.581855,86.244952c-100.895843,70.815249 -159.767386,178.343826 -159.767386,294.269275c0,111.983333 55.059092,215.951067 149.713021,286.744126l-62.244966,168.788404a13.578501,14.413345 0 0 0 18.01699,18.442724l230.206713,-104.996751c35.853174,7.536254 72.99431,11.4728 110.657483,11.4728c105.399611,0 206.954866,-30.367107 286.581821,-86.243101c100.862733,-70.826372 159.767403,-178.293875 159.767403,-294.208201c0,-115.925449 -58.89787,-223.452176 -159.767403,-294.269275c-79.628698,-55.896353 -181.182209,-86.244952 -286.581821,-86.244952zm-197.951183,221.04063c61.597062,0 113.943014,44.876987 129.429414,105.307696l365.157954,0a34.858339,37.001527 0 1 1 0,73.968927l-46.204117,0l0,37.631301a34.858339,37.001527 0 1 1 -69.683829,0l0,-37.631301l-31.558284,0l0,102.100328a34.871032,37.015001 0 0 1 -69.742063,0l0,-102.100328l-147.969661,0c-15.466697,60.456601 -67.810383,105.368752 -129.429414,105.368752c-73.646573,0 -134.137369,-64.20622 -134.137369,-142.383753c0,-78.177551 60.490796,-142.261622 134.137369,-142.261622zm197.951183,-147.071703c-35.972608,0 -64.395288,30.106169 -64.395288,68.292695c0,38.184675 28.422681,68.353751 64.395288,68.353751c35.975049,0 64.395114,-30.169076 64.395114,-68.353751c0,-38.186526 -28.420065,-68.292695 -64.395114,-68.292695z"/>
 </g>
</svg>