<?xml version="1.0" standalone="no"?><!DOCTYPE svg PUBLIC "-//W3C//DTD SVG 1.1//EN" "http://www.w3.org/Graphics/SVG/1.1/DTD/svg11.dtd"><svg t="1747107534856" class="icon" viewBox="0 0 1024 1024" version="1.1" xmlns="http://www.w3.org/2000/svg" p-id="2753" xmlns:xlink="http://www.w3.org/1999/xlink" width="200" height="200"><path d="M512 149.333333c200.533333 0 362.666667 162.133333 362.666667 362.666667s-162.133333 362.666667-362.666667 362.666667S149.333333 712.533333 149.333333 512 311.466667 149.333333 512 149.333333z m0 85.333334c-153.6 0-277.333333 123.733333-277.333333 277.333333s123.733333 277.333333 277.333333 277.333333 277.333333-123.733333 277.333333-277.333333-123.733333-277.333333-277.333333-277.333333z m0 149.333333c70.4 0 128 57.6 128 128s-57.6 128-128 128-128-57.6-128-128 57.6-128 128-128z" p-id="2754"></path></svg>