<?xml version="1.0" standalone="no"?><!DOCTYPE svg PUBLIC "-//W3C//DTD SVG 1.1//EN" "http://www.w3.org/Graphics/SVG/1.1/DTD/svg11.dtd"><svg height="144" node-id="1" sillyvg="true" template-height="144" template-width="144" version="1.1" viewBox="0 0 144 144" width="144" xmlns="http://www.w3.org/2000/svg" xmlns:xlink="http://www.w3.org/1999/xlink"><defs node-id="25"></defs><path d="M 142.00 136.00 L 138.00 136.00 C 136.90 136.00 136.00 135.10 136.00 134.00 C 136.00 132.90 136.90 132.00 138.00 132.00 L 142.00 132.00 C 143.10 132.00 144.00 132.90 144.00 134.00 C 144.00 135.10 143.10 136.00 142.00 136.00 Z" fill="#cccccc" fill-rule="nonzero" node-id="27" stroke="none" target-height="4" target-width="8" target-x="136" target-y="132"></path><path d="M 130.00 136.00 L 2.00 136.00 C 0.90 136.00 0.00 135.10 0.00 134.00 C 0.00 132.90 0.90 132.00 2.00 132.00 L 130.00 132.00 C 131.10 132.00 132.00 132.90 132.00 134.00 C 132.00 135.10 131.10 136.00 130.00 136.00 Z" fill="#cccccc" fill-rule="nonzero" node-id="29" stroke="none" target-height="4" target-width="132" target-x="0" target-y="132"></path><path d="M 122.00 144.00 L 42.00 144.00 C 40.90 144.00 40.00 143.10 40.00 142.00 C 40.00 140.90 40.90 140.00 42.00 140.00 L 122.00 140.00 C 123.10 140.00 124.00 140.90 124.00 142.00 C 124.00 143.10 123.10 144.00 122.00 144.00 Z" fill="#cccccc" fill-rule="nonzero" node-id="31" stroke="none" target-height="4" target-width="84" target-x="40" target-y="140"></path><path d="M 34.00 144.00 L 22.00 144.00 C 20.90 144.00 20.00 143.10 20.00 142.00 C 20.00 140.90 20.90 140.00 22.00 140.00 L 34.00 140.00 C 35.10 140.00 36.00 140.90 36.00 142.00 C 36.00 143.10 35.10 144.00 34.00 144.00 Z" fill="#cccccc" fill-rule="nonzero" node-id="33" stroke="none" target-height="4" target-width="16" target-x="20" target-y="140"></path><path d="M 110.50 124.00 L 33.50 124.00 C 29.45 124.08 26.09 120.87 26.00 116.82 L 26.00 62.71 C 26.00 58.56 27.91 54.64 31.18 52.09 L 37.45 47.26 C 38.33 46.59 39.58 46.75 40.25 47.63 C 40.93 48.50 40.77 49.76 39.89 50.43 L 33.62 55.26 C 31.33 57.05 29.99 59.80 30.00 62.71 L 30.00 116.82 C 30.09 118.66 31.66 120.08 33.50 120.00 L 110.50 120.00 C 112.34 120.08 113.91 118.66 114.00 116.82 L 114.00 62.71 C 114.01 59.80 112.67 57.05 110.38 55.26 L 104.11 50.43 C 103.23 49.76 103.07 48.50 103.75 47.63 C 104.42 46.75 105.67 46.59 106.55 47.26 L 112.82 52.09 C 116.09 54.64 118.00 58.56 118.00 62.71 L 118.00 116.82 C 117.91 120.87 114.55 124.08 110.50 124.00 Z" fill="#666666" fill-rule="nonzero" node-id="35" stroke="none" target-height="77.49757" target-width="92.00798" target-x="25.996008" target-y="46.586212"></path><path d="M 105.33 81.69 C 104.23 81.69 103.33 80.79 103.33 79.69 L 103.33 26.00 C 103.33 24.90 102.43 24.00 101.33 24.00 L 42.67 24.00 C 41.57 24.00 40.67 24.90 40.67 26.00 L 40.67 79.69 C 40.67 80.79 39.77 81.69 38.67 81.69 C 37.57 81.69 36.67 80.79 36.67 79.69 L 36.67 26.00 C 36.67 22.69 39.36 20.00 42.67 20.00 L 101.33 20.00 C 104.64 20.00 107.33 22.69 107.33 26.00 L 107.33 79.69 C 107.33 80.79 106.43 81.69 105.33 81.69 Z" fill="#999999" fill-rule="nonzero" node-id="37" stroke="none" target-height="61.690002" target-width="70.66" target-x="36.67" target-y="20"></path><path d="M 116.00 118.00 C 115.65 118.00 115.30 117.91 115.00 117.74 L 74.83 94.74 C 73.07 93.72 70.91 93.72 69.15 94.74 L 29.00 117.74 C 28.04 118.29 26.81 117.96 26.26 117.00 C 25.71 116.04 26.04 114.81 27.00 114.26 L 67.17 91.26 C 70.15 89.53 73.83 89.53 76.81 91.26 L 116.98 114.26 C 117.77 114.71 118.16 115.64 117.93 116.52 C 117.69 117.40 116.89 118.01 115.98 118.00 Z" fill="#666666" fill-rule="nonzero" node-id="39" stroke="none" target-height="28.762596" target-width="92.45366" target-x="25.707716" target-y="89.529686"></path><path d="M 78.50 96.00 C 77.59 96.00 76.79 95.37 76.57 94.49 C 76.35 93.60 76.76 92.67 77.56 92.24 L 115.06 72.24 C 115.69 71.84 116.50 71.83 117.14 72.21 C 117.78 72.59 118.16 73.30 118.12 74.05 C 118.08 74.79 117.62 75.45 116.94 75.76 L 79.44 95.76 C 79.15 95.92 78.83 96.00 78.50 96.00 Z" fill="#666666" fill-rule="nonzero" node-id="41" stroke="none" target-height="24.166603" target-width="41.811653" target-x="76.34793" target-y="71.8334"></path><path d="M 65.50 96.00 C 65.17 96.00 64.85 95.92 64.56 95.76 L 27.06 75.76 C 26.38 75.45 25.92 74.79 25.88 74.05 C 25.84 73.30 26.22 72.59 26.86 72.21 C 27.50 71.83 28.31 71.84 28.94 72.24 L 66.44 92.24 C 67.24 92.67 67.65 93.60 67.43 94.49 C 67.21 95.37 66.41 96.00 65.50 96.00 Z" fill="#666666" fill-rule="nonzero" node-id="43" stroke="none" target-height="24.166603" target-width="41.811657" target-x="25.840412" target-y="71.8334"></path><path d="M 56.00 16.00 C 54.90 16.00 54.00 15.10 54.00 14.00 L 54.00 6.00 C 54.00 4.90 54.90 4.00 56.00 4.00 C 57.10 4.00 58.00 4.90 58.00 6.00 L 58.00 14.00 C 58.00 15.10 57.10 16.00 56.00 16.00 Z" fill="#666666" fill-rule="nonzero" node-id="45" stroke="none" target-height="12" target-width="4" target-x="54" target-y="4"></path><path d="M 88.00 16.00 C 86.90 16.00 86.00 15.10 86.00 14.00 L 86.00 6.00 C 86.00 4.90 86.90 4.00 88.00 4.00 C 89.10 4.00 90.00 4.90 90.00 6.00 L 90.00 14.00 C 90.00 15.10 89.10 16.00 88.00 16.00 Z" fill="#666666" fill-rule="nonzero" node-id="47" stroke="none" target-height="12" target-width="4" target-x="86" target-y="4"></path><path d="M 72.00 42.00 C 67.44 41.99 63.47 38.91 62.33 34.50 C 62.12 33.80 62.31 33.04 62.83 32.52 C 63.34 32.00 64.10 31.80 64.81 32.01 C 65.51 32.21 66.04 32.78 66.20 33.50 C 66.90 36.13 69.28 37.96 72.00 37.96 C 74.72 37.96 77.10 36.13 77.80 33.50 C 77.96 32.78 78.49 32.21 79.19 32.01 C 79.90 31.80 80.66 32.00 81.17 32.52 C 81.69 33.04 81.88 33.80 81.67 34.50 C 80.53 38.91 76.56 41.99 72.00 42.00 Z" fill="#666666" fill-rule="nonzero" node-id="49" stroke="none" target-height="10.198668" target-width="19.760239" target-x="62.11988" target-y="31.801332"></path><path d="M 97.00 58.00 L 49.00 58.00 C 47.90 58.00 47.00 57.10 47.00 56.00 C 47.00 54.90 47.90 54.00 49.00 54.00 L 97.00 54.00 C 98.10 54.00 99.00 54.90 99.00 56.00 C 99.00 57.10 98.10 58.00 97.00 58.00 Z" fill="#999999" fill-rule="nonzero" node-id="51" stroke="none" target-height="4" target-width="52" target-x="47" target-y="54"></path><path d="M 73.00 74.00 L 49.00 74.00 C 47.90 74.00 47.00 73.10 47.00 72.00 C 47.00 70.90 47.90 70.00 49.00 70.00 L 73.00 70.00 C 74.10 70.00 75.00 70.90 75.00 72.00 C 75.00 73.10 74.10 74.00 73.00 74.00 Z" fill="#999999" fill-rule="nonzero" node-id="53" stroke="none" target-height="4" target-width="28" target-x="47" target-y="70"></path><path d="M 134.88 40.00 L 134.00 40.00 C 133.45 40.00 133.00 39.55 133.00 39.00 L 133.00 38.12 C 133.04 37.10 132.34 36.20 131.34 36.00 C 130.75 35.90 130.15 36.06 129.70 36.45 C 129.25 36.84 128.99 37.41 129.00 38.00 L 129.00 39.00 C 129.00 39.55 128.55 40.00 128.00 40.00 L 127.12 40.00 C 126.10 39.96 125.20 40.66 125.00 41.66 C 124.90 42.25 125.06 42.85 125.45 43.30 C 125.84 43.75 126.41 44.01 127.00 44.00 L 128.00 44.00 C 128.55 44.00 129.00 44.45 129.00 45.00 L 129.00 45.88 C 128.96 46.90 129.66 47.80 130.66 48.00 C 131.25 48.10 131.85 47.94 132.30 47.55 C 132.75 47.16 133.01 46.59 133.00 46.00 L 133.00 45.00 C 133.00 44.45 133.45 44.00 134.00 44.00 L 135.00 44.00 C 135.59 44.01 136.16 43.75 136.55 43.30 C 136.94 42.85 137.10 42.25 137.00 41.66 C 136.80 40.66 135.90 39.96 134.88 40.00 Z" fill="#cccccc" fill-rule="nonzero" node-id="55" stroke="none" target-height="12.202438" target-width="12.202431" target-x="124.89878" target-y="35.89878"></path><path d="M 138.59 118.67 L 138.00 118.67 C 137.63 118.67 137.33 118.37 137.33 118.00 L 137.33 117.41 C 137.34 116.74 136.88 116.16 136.23 116.02 C 135.84 115.96 135.45 116.06 135.15 116.32 C 134.85 116.57 134.67 116.94 134.67 117.33 L 134.67 118.00 C 134.67 118.37 134.37 118.67 134.00 118.67 L 133.41 118.67 C 132.74 118.66 132.16 119.12 132.02 119.77 C 131.96 120.16 132.06 120.55 132.32 120.85 C 132.57 121.15 132.94 121.33 133.33 121.33 L 134.00 121.33 C 134.37 121.33 134.67 121.63 134.67 122.00 L 134.67 122.59 C 134.66 123.26 135.12 123.84 135.77 123.98 C 136.16 124.04 136.55 123.94 136.85 123.68 C 137.15 123.43 137.33 123.06 137.33 122.67 L 137.33 122.00 C 137.33 121.63 137.63 121.33 138.00 121.33 L 138.67 121.33 C 139.06 121.33 139.43 121.15 139.68 120.85 C 139.94 120.55 140.04 120.16 139.98 119.77 C 139.84 119.12 139.26 118.66 138.59 118.67 Z" fill="#cccccc" fill-rule="nonzero" node-id="57" stroke="none" target-height="8.088684" target-width="8.088684" target-x="131.95566" target-y="115.95566"></path><path d="M 6.59 69.67 L 6.00 69.67 C 5.63 69.67 5.33 69.37 5.33 69.00 L 5.33 68.41 C 5.35 67.74 4.89 67.14 4.23 67.00 C 3.84 66.94 3.45 67.04 3.15 67.30 C 2.85 67.55 2.67 67.92 2.67 68.31 L 2.67 69.00 C 2.67 69.37 2.37 69.67 2.00 69.67 L 1.41 69.67 C 0.74 69.65 0.14 70.11 0.00 70.77 C -0.06 71.16 0.04 71.55 0.30 71.85 C 0.55 72.15 0.92 72.33 1.31 72.33 L 2.00 72.33 C 2.37 72.33 2.67 72.63 2.67 73.00 L 2.67 73.59 C 2.65 74.26 3.11 74.86 3.77 75.00 C 4.16 75.06 4.55 74.96 4.85 74.70 C 5.15 74.45 5.33 74.08 5.33 73.69 L 5.33 73.00 C 5.33 72.63 5.63 72.33 6.00 72.33 L 6.67 72.33 C 7.07 72.33 7.44 72.16 7.70 71.86 C 7.95 71.56 8.06 71.16 8.00 70.77 C 7.86 70.11 7.26 69.65 6.59 69.67 Z" fill="#cccccc" fill-rule="nonzero" node-id="59" stroke="none" target-height="8.128677" target-width="8.129243" target-x="-0.06433895" target-y="66.93566"></path><path d="M 25.59 23.67 L 25.00 23.67 C 24.63 23.67 24.33 23.37 24.33 23.00 L 24.33 22.41 C 24.35 21.74 23.89 21.14 23.23 21.00 C 22.84 20.94 22.45 21.04 22.15 21.30 C 21.85 21.55 21.67 21.92 21.67 22.31 L 21.67 23.00 C 21.67 23.37 21.37 23.67 21.00 23.67 L 20.41 23.67 C 19.74 23.65 19.14 24.11 19.00 24.77 C 18.94 25.16 19.04 25.55 19.30 25.85 C 19.55 26.15 19.92 26.33 20.31 26.33 L 21.00 26.33 C 21.37 26.33 21.67 26.63 21.67 27.00 L 21.67 27.59 C 21.65 28.26 22.11 28.86 22.77 29.00 C 23.16 29.06 23.55 28.96 23.85 28.70 C 24.15 28.45 24.33 28.08 24.33 27.69 L 24.33 27.00 C 24.33 26.63 24.63 26.33 25.00 26.33 L 25.67 26.33 C 26.07 26.33 26.44 26.16 26.70 25.86 C 26.95 25.56 27.06 25.16 27.00 24.77 C 26.86 24.11 26.26 23.65 25.59 23.67 Z" fill="#cccccc" fill-rule="nonzero" node-id="61" stroke="none" target-height="8.128677" target-width="8.129242" target-x="18.935661" target-y="20.935661"></path><path d="M 6.59 2.67 L 6.00 2.67 C 5.63 2.67 5.33 2.37 5.33 2.00 L 5.33 1.41 C 5.35 0.74 4.89 0.14 4.23 0.00 C 3.84 -0.06 3.44 0.05 3.14 0.30 C 2.84 0.56 2.67 0.93 2.67 1.33 L 2.67 2.00 C 2.67 2.37 2.37 2.67 2.00 2.67 L 1.41 2.67 C 0.74 2.65 0.14 3.11 0.00 3.77 C -0.06 4.16 0.05 4.56 0.30 4.86 C 0.56 5.16 0.93 5.33 1.33 5.33 L 2.00 5.33 C 2.37 5.33 2.67 5.63 2.67 6.00 L 2.67 6.59 C 2.65 7.26 3.11 7.86 3.77 8.00 C 4.16 8.06 4.56 7.95 4.86 7.70 C 5.16 7.44 5.33 7.07 5.33 6.67 L 5.33 6.00 C 5.33 5.63 5.63 5.33 6.00 5.33 L 6.67 5.33 C 7.07 5.33 7.44 5.16 7.70 4.86 C 7.95 4.56 8.06 4.16 8.00 3.77 C 7.86 3.11 7.26 2.65 6.59 2.67 Z" fill="#cccccc" fill-rule="nonzero" node-id="63" stroke="none" target-height="8.129808" target-width="8.129808" target-x="-0.06490402" target-y="-0.06490402"></path></svg>