<?xml version="1.0" standalone="no"?><!DOCTYPE svg PUBLIC "-//W3C//DTD SVG 1.1//EN" "http://www.w3.org/Graphics/SVG/1.1/DTD/svg11.dtd"><svg t="1747638421391" class="icon" viewBox="0 0 1024 1024" version="1.1" xmlns="http://www.w3.org/2000/svg" p-id="19917" xmlns:xlink="http://www.w3.org/1999/xlink" width="200" height="200"><path d="M442.049719 12.874398a56.319421 56.319421 0 0 1 71.678263 0c110.781861 89.086084 277.754144 179.196157 382.264069 179.196157 32.959661 0 59.710386 28.607706 59.710386 63.999342 0 357.303326-161.276342 628.20954-454.325328 762.735156a56.319421 56.319421 0 0 1-47.039516 0C161.287606 884.279437 0.011265 613.373223 0.011265 256.067897c0-35.390636 26.750725-63.999342 59.710386-63.999342 104.573925-0.062999 271.482208-90.109073 382.328068-179.259157z m208.570856 351.928381l-222.074717 226.427671-96.126011-98.110991a63.999342 63.999342 0 0 0-91.390061 89.599079L382.914327 727.483049a63.999342 63.999342 0 0 0 91.390061 0l267.707247-273.082192a63.999342 63.999342 0 1 0-91.39106-89.599078z" fill="#3AD258" p-id="19918"></path></svg>