<?xml version="1.0" standalone="no"?><!DOCTYPE svg PUBLIC "-//W3C//DTD SVG 1.1//EN" "http://www.w3.org/Graphics/SVG/1.1/DTD/svg11.dtd"><svg t="1699945995122" class="icon" viewBox="0 0 1024 1024" version="1.1" xmlns="http://www.w3.org/2000/svg" p-id="17323" xmlns:xlink="http://www.w3.org/1999/xlink" width="200" height="200"><path d="M768 597.333333L384 213.333333h298.666667a85.333333 85.333333 0 0 1 85.333333 85.333334v128l115.626667-115.626667a42.666667 42.666667 0 0 1 29.866666-12.373333h3.84a21.333333 21.333333 0 0 1 21.333334 21.333333v384a21.333333 21.333333 0 0 1-21.333334 21.333333h-3.84a42.666667 42.666667 0 0 1-29.866666-12.373333L768 597.333333z m164.266667 298.666667l-22.613334 22.613333a21.333333 21.333333 0 0 1-29.866666 0l-136.106667-136.106666A85.333333 85.333333 0 0 1 682.666667 810.666667H170.666667a85.333333 85.333333 0 0 1-85.333334-85.333334V298.666667a85.333333 85.333333 0 0 1 85.333334-85.333334L104.106667 144.213333a20.48 20.48 0 0 1 0-29.866666L128 91.733333a20.48 20.48 0 0 1 29.866667 0l774.4 775.68a21.333333 21.333333 0 0 1 0 28.586667z m-512-438.613333l-71.68-68.266667H234.666667a21.333333 21.333333 0 0 0-21.333334 21.333333v32.426667a21.333333 21.333333 0 0 0 21.333334 21.333333h170.666666a20.48 20.48 0 0 0 13.226667-5.12z" p-id="17324"></path></svg>