<?xml version="1.0" standalone="no"?><!DOCTYPE svg PUBLIC "-//W3C//DTD SVG 1.1//EN" "http://www.w3.org/Graphics/SVG/1.1/DTD/svg11.dtd"><svg t="1747638407303" class="icon" viewBox="0 0 1024 1024" version="1.1" xmlns="http://www.w3.org/2000/svg" p-id="17918" xmlns:xlink="http://www.w3.org/1999/xlink" width="200" height="200"><path d="M391.199 218.301l209.6-132.8c65.6-41.2 152.2-21.5 193.6 43.9l56.2 88.9h-459.4z" fill="#FBC75D" p-id="17919"></path><path d="M189.399 960.001c-69.1 0.1-125.3-55.8-125.4-124.9v-429.7c-0.2-69.1 55.6-125.3 124.7-125.6H834.599c69.1-0.1 125.3 55.8 125.4 124.9v102.8h-259.8c-61.9 0-112 50.1-112 112s50.1 112 112 112h259.8v103.1c0.1 69.1-55.9 125.2-125 125.3h-645.6z m462.4-340.5c0-26.7 21.7-48.4 48.4-48.3 26.7 0 48.4 21.7 48.3 48.4 0 26.7-21.7 48.4-48.4 48.3h-0.1c-26.6 0-48.2-21.6-48.2-48.4 0 0.1 0 0.1 0 0z" fill="#FD574B" p-id="17920"></path></svg>